<svg width="48" height="40" viewBox="0 0 48 40" fill="none" xmlns="http://www.w3.org/2000/svg">
<path fill-rule="evenodd" clip-rule="evenodd" d="M2.64372 4.61538C2.64372 3.39131 3.12582 2.21737 3.98398 1.35181C4.84213 0.486262 6.00604 0 7.21965 0H15.6516C18.5741 0 21.0207 1.72308 22.7016 3.64308C23.9523 5.07077 25.4624 6.15385 27.0487 6.15385H40.7765C41.9901 6.15385 43.1541 6.64011 44.0122 7.50566C44.8704 8.37121 45.3525 9.54515 45.3525 10.7692V12.7385C47.0913 13.5538 48.2201 15.4338 47.9638 17.4954L46.0114 33.2615C45.7807 35.1232 44.8835 36.8357 43.4885 38.0767C42.0934 39.3177 40.2968 40.0017 38.4367 40H9.55643C7.69737 40.0002 5.90224 39.3155 4.50849 38.0747C3.11474 36.8338 2.21835 35.1222 1.98783 33.2615L0.0354306 17.4954C-0.0848464 16.5261 0.102878 15.5433 0.571585 14.6885C1.04029 13.8337 1.76581 13.1509 2.64372 12.7385V4.61538ZM5.69434 12.3077H42.3018V10.7692C42.3018 10.3612 42.1411 9.96989 41.8551 9.68137C41.569 9.39286 41.1811 9.23077 40.7765 9.23077H27.0487C24.1079 9.23077 21.8321 7.29538 20.4167 5.68C19.0378 4.10461 17.3477 3.07692 15.6516 3.07692H7.21965C6.81511 3.07692 6.42715 3.23901 6.14109 3.52753C5.85504 3.81605 5.69434 4.20736 5.69434 4.61538V12.3077ZM4.57476 15.3846C4.35852 15.3847 4.14477 15.4311 3.94768 15.5208C3.75058 15.6106 3.57466 15.7415 3.43157 15.9051C3.28849 16.0686 3.18151 16.2609 3.11773 16.4693C3.05395 16.6777 3.03484 16.8974 3.06165 17.1138L5.01405 32.88C5.15239 33.9966 5.6904 35.0237 6.5269 35.7683C7.36341 36.5128 8.44078 36.9235 9.55643 36.9231H38.4398C39.5554 36.9235 40.6328 36.5128 41.4693 35.7683C42.3058 35.0237 42.8438 33.9966 42.9821 32.88L44.9345 17.1138C44.9613 16.8974 44.9422 16.6777 44.8785 16.4693C44.8147 16.2609 44.7077 16.0686 44.5646 15.9051C44.4215 15.7415 44.2456 15.6106 44.0485 15.5208C43.8514 15.4311 43.6377 15.3847 43.4214 15.3846H4.57476Z" fill="#565682"/>
<path d="M23.5077 28.4278C23.7365 28.4341 23.9579 28.503 24.1431 28.6255L27.9968 30.9789C28.0164 30.9924 28.0402 30.9998 28.0647 31C28.0892 31.0002 28.1132 30.9931 28.1329 30.9799C28.1527 30.9666 28.1672 30.9479 28.1743 30.9265C28.1815 30.9052 28.1808 30.8822 28.1725 30.8612L26.9068 26.7945C26.8446 26.595 26.8492 26.3831 26.92 26.186C26.9909 25.9889 27.1248 25.8156 27.3046 25.6884L30.9517 23.0761C30.9716 23.0633 30.9865 23.0451 30.9942 23.0241C31.0019 23.0031 31.002 22.9804 30.9944 22.9593C30.9869 22.9383 30.9722 22.9199 30.9524 22.9071C30.9326 22.8942 30.9088 22.8874 30.8845 22.8878L26.2353 22.7278C26.0076 22.7197 25.7878 22.65 25.6038 22.5276C25.4198 22.4052 25.28 22.2357 25.2021 22.0406L23.6007 18.0727C23.5935 18.0516 23.5791 18.0332 23.5596 18.0201C23.5401 18.0071 23.5165 18 23.4923 18C23.468 18 23.4444 18.0071 23.4249 18.0201C23.4054 18.0332 23.391 18.0516 23.3838 18.0727L21.7979 22.0359C21.72 22.231 21.5802 22.4005 21.3962 22.5229C21.2122 22.6453 20.9924 22.715 20.7647 22.7231L16.1155 22.8831C16.0912 22.8827 16.0674 22.8895 16.0476 22.9024C16.0278 22.9152 16.0131 22.9336 16.0056 22.9546C15.9981 22.9757 15.9981 22.9984 16.0058 23.0194C16.0135 23.0404 16.0284 23.0586 16.0483 23.0714L19.7006 25.6884C19.8798 25.816 20.0133 25.9893 20.0841 26.1863C20.1549 26.3833 20.1599 26.595 20.0983 26.7945L18.8379 30.8612C18.8303 30.8816 18.8303 30.9036 18.8378 30.924C18.8452 30.9444 18.8598 30.962 18.8792 30.9742C18.8979 30.9888 18.9217 30.9968 18.9463 30.9968C18.971 30.9968 18.9948 30.9888 19.0135 30.9742L22.8672 28.6208C23.0555 28.5069 23.2766 28.4463 23.5026 28.4466L23.5077 28.4278Z" fill="black"/>
</svg>
