<svg width="60" height="63" viewBox="0 0 60 63" fill="none" xmlns="http://www.w3.org/2000/svg">
<path opacity="0.2" d="M54.2462 35.5675L54.2602 35.5746C54.4782 34.2457 54.5837 32.8886 54.5837 31.5457C54.5837 30.3433 54.4923 29.1339 54.3235 27.9527C54.4923 29.1269 54.5766 30.3152 54.5766 31.5035C54.5766 32.8675 54.4641 34.2316 54.2462 35.5675ZM0.787555 23.5019C0.752399 23.4738 0.724274 23.4457 0.689117 23.4105C0.738336 23.4597 0.787555 23.5089 0.843805 23.5582L5.44928 27.4886V27.4816L0.787555 23.5019ZM38.5173 8.3144H38.5243L37.4345 2.42222C37.4204 2.3519 37.4063 2.28862 37.3852 2.22534C37.3923 2.2605 37.4063 2.30269 37.4134 2.33784L38.5173 8.3144ZM42.3141 46.7402L44.522 44.9261L51.047 47.2394C52.2423 45.6292 53.2477 43.8996 54.0423 42.0644L48.7899 37.5714L49.254 34.7519C49.4298 33.6902 49.5212 32.6003 49.5212 31.5105C49.5212 30.4207 49.4298 29.3308 49.254 28.2691L48.797 25.4636L54.0493 20.9707C53.2477 19.1425 52.2493 17.4058 51.054 15.7957L44.529 18.1089L42.3212 16.2949C40.6407 14.9167 38.7634 13.8339 36.7454 13.0746L34.0665 12.0691L32.8079 5.24878C30.8221 5.02378 28.8172 5.02378 26.8313 5.24878L25.5727 12.0832L22.9079 13.0886C20.904 13.848 19.0407 14.9308 17.3743 16.3019L15.1665 18.123L8.59928 15.7886C7.40397 17.3988 6.3985 19.1285 5.60396 20.9636L10.9126 25.4988L10.4555 28.3113C10.2797 29.3589 10.1954 30.4347 10.1954 31.5105C10.1954 32.5792 10.2868 33.6621 10.4555 34.7097L10.9126 37.5222L5.60396 42.0574C6.40553 43.8855 7.40397 45.6222 8.59928 47.2324L15.1665 44.898L17.3743 46.7191C19.0407 48.0902 20.904 49.173 22.9079 49.9324L25.5657 50.9519L26.8243 57.7863C28.8071 58.0113 30.8251 58.0113 32.8009 57.7863L34.0594 50.966L36.7384 49.9605C38.7634 49.2011 40.6337 48.1183 42.3141 46.7402ZM29.8618 43.2035C27.7173 43.2035 25.6993 42.655 23.9344 41.6917C20.0743 39.5964 17.4516 35.5113 17.4516 30.8074C17.4516 23.973 22.9923 18.4324 29.8266 18.4324C34.5305 18.4324 38.6157 21.055 40.711 24.9152C41.6743 26.673 42.2227 28.691 42.2227 30.8425C42.2227 37.6699 36.6891 43.2035 29.8618 43.2035ZM8.39537 52.6605C8.00865 52.7941 7.60787 52.8222 7.22818 52.7449C7.62897 52.8292 8.05084 52.8152 8.45865 52.6746L14.1821 50.6355C14.1751 50.6285 14.161 50.6214 14.154 50.6144L8.39537 52.6605ZM58.8517 23.5019L54.2462 27.4394C54.2462 27.4535 54.2532 27.4746 54.2532 27.4886L58.8517 23.5582C59.3509 23.1292 59.6321 22.5105 59.6391 21.8707C59.6181 22.4894 59.3368 23.0871 58.8517 23.5019Z" fill="#3855EE"/>
<path d="M59.6251 40.9745C59.6602 41.305 59.6251 41.6425 59.5056 41.9659L59.4423 42.1487C58.1712 45.6908 56.273 48.9752 53.8384 51.8448L53.7118 51.9925C53.4168 52.3411 53.0227 52.5917 52.5819 52.7111C52.1411 52.8304 51.6744 52.8127 51.2438 52.6604L45.5274 50.6284C43.4303 52.3561 41.0615 53.7247 38.5172 54.6784L37.4133 60.655C37.33 61.1047 37.1119 61.5184 36.7879 61.8411C36.4639 62.1639 36.0493 62.3804 35.5993 62.462L35.4094 62.4971C33.5718 62.8293 31.7081 62.9964 29.8407 62.9964H29.8618C31.7391 62.9964 33.6165 62.8276 35.4446 62.4971L35.6344 62.462C36.0844 62.3804 36.499 62.1639 36.823 61.8411C37.1471 61.5184 37.3652 61.1047 37.4485 60.655L38.5524 54.6854C41.0977 53.7292 43.4462 52.3721 45.5555 50.6425L51.2649 52.6745C51.6955 52.8268 52.1622 52.8444 52.603 52.7251C53.0438 52.6058 53.4379 52.3552 53.7329 52.0065L53.8594 51.8589C56.3063 48.969 58.1837 45.7136 59.4563 42.1768L59.5196 41.994C59.6321 41.6635 59.6673 41.312 59.6251 40.9745Z" fill="black" fill-opacity="0.15"/>
<path d="M42.2016 30.8074C42.2016 28.6769 41.6602 26.666 40.711 24.9152C38.6157 21.055 34.5305 18.4324 29.8266 18.4324C22.9922 18.4324 17.4516 23.973 17.4516 30.8074C17.4516 35.5113 20.0743 39.5964 23.9344 41.6917C25.6852 42.641 27.6891 43.1824 29.8266 43.1824C36.661 43.1824 42.2016 37.6417 42.2016 30.8074ZM21.9516 30.8074C21.9516 28.705 22.7743 26.7292 24.2578 25.2386C25.7485 23.748 27.7243 22.9324 29.8266 22.9324C31.9289 22.9324 33.9047 23.748 35.3953 25.2386C36.1278 25.969 36.7087 26.837 37.1045 27.7927C37.5003 28.7484 37.7032 29.773 37.7016 30.8074C37.7016 32.9097 36.8789 34.8855 35.3953 36.3761C34.665 37.1086 33.7969 37.6895 32.8412 38.0853C31.8855 38.4811 30.861 38.684 29.8266 38.6824C27.7243 38.6824 25.7485 37.8597 24.2578 36.3761C23.5254 35.6457 22.9445 34.7777 22.5487 33.822C22.1529 32.8663 21.95 31.8418 21.9516 30.8074Z" fill="#565682"/>
<path d="M35.5992 62.4621C36.0492 62.3806 36.4638 62.164 36.7878 61.8413C37.1119 61.5185 37.33 61.1048 37.4133 60.6551L38.5172 54.6785C41.0615 53.7248 43.4302 52.3563 45.5273 50.6285L51.2438 52.6605C51.6743 52.8128 52.141 52.8305 52.5818 52.7112C53.0227 52.5919 53.4167 52.3412 53.7117 51.9926L53.8383 51.8449C56.2852 48.9551 58.1695 45.6926 59.4422 42.1488L59.5055 41.966C59.625 41.6426 59.6602 41.3051 59.625 40.9746C59.5617 40.4191 59.2945 39.8918 58.8516 39.5051L54.2602 35.5746L54.2461 35.5676C54.4641 34.2316 54.5766 32.8676 54.5766 31.5035C54.5766 30.3152 54.4922 29.1199 54.3234 27.9527C54.3023 27.798 54.2742 27.6434 54.2531 27.4887C54.2531 27.4746 54.2461 27.4535 54.2461 27.4395L58.8516 23.502C59.3367 23.0871 59.618 22.4895 59.6391 21.8707C59.6461 21.5895 59.6039 21.3012 59.5055 21.027L59.4422 20.8441C58.1743 17.3006 56.2758 14.0156 53.8383 11.148L53.7117 11.0004C53.416 10.6527 53.0219 10.4028 52.5814 10.2835C52.1408 10.1643 51.6744 10.1813 51.2438 10.3324L45.5273 12.3645C43.418 10.6348 41.0695 9.2707 38.5242 8.31445H38.5172L37.4133 2.33789C37.4063 2.30273 37.3992 2.26055 37.3852 2.22539C37.2836 1.80028 37.0608 1.41382 36.7438 1.11299C36.4267 0.812155 36.0291 0.609917 35.5992 0.530859L35.4094 0.495703C31.7461 -0.165234 27.893 -0.165234 24.2297 0.495703L24.0399 0.530859C23.5898 0.612399 23.1753 0.828936 22.8512 1.1517C22.5272 1.47447 22.3091 1.88819 22.2258 2.33789L21.1149 8.34258C18.5899 9.29903 16.2384 10.6624 14.1539 12.3785L8.39532 10.3324C7.96477 10.1801 7.49807 10.1625 7.05724 10.2818C6.61642 10.4011 6.22233 10.6517 5.92736 11.0004L5.80079 11.148C3.3662 14.0177 1.46797 17.3021 0.196889 20.8441L0.133608 21.027C-0.0129157 21.4356 -0.0384457 21.8778 0.0600794 22.3006C0.158604 22.7234 0.377001 23.1088 0.689077 23.4105C0.724233 23.4387 0.752358 23.4738 0.787514 23.502L5.44923 27.4816V27.4887C5.23126 28.8105 5.12579 30.1535 5.12579 31.4965C5.12579 32.8465 5.23126 34.1965 5.44923 35.5113L0.787514 39.491C0.44014 39.7884 0.19152 40.1845 0.0747141 40.6266C-0.0420923 41.0687 -0.0215508 41.5359 0.133608 41.966L0.196889 42.1488C1.46955 45.6926 3.35392 48.9621 5.80079 51.8449L5.92736 51.9926C6.27189 52.3934 6.72892 52.6535 7.22814 52.7449C7.60783 52.8152 8.00861 52.7941 8.39532 52.6605L14.1539 50.6145C14.1609 50.6215 14.175 50.6285 14.182 50.6355C16.2703 52.3441 18.5977 53.7012 21.1149 54.6504L22.2258 60.6551C22.3091 61.1048 22.5272 61.5185 22.8512 61.8413C23.1753 62.164 23.5898 62.3806 24.0399 62.4621L24.2297 62.4973C26.0649 62.8277 27.9422 62.9965 29.8195 62.9965H29.8406C31.7109 62.9965 33.5883 62.8277 35.4094 62.4973L35.5992 62.4621ZM32.8008 57.7863C30.815 58.0113 28.8101 58.0113 26.8242 57.7863L25.5656 50.952L22.9078 49.9324C20.9039 49.173 19.0406 48.0902 17.3742 46.7191L15.1664 44.898L8.59923 47.2324C7.40392 45.6223 6.40548 43.8855 5.60392 42.0574L10.9125 37.5223L10.4555 34.7098C10.2867 33.6621 10.1953 32.5793 10.1953 31.5105C10.1953 30.4348 10.2797 29.359 10.4555 28.3113L10.9125 25.4988L5.60392 20.9637C6.39845 19.1285 7.40392 17.3988 8.59923 15.7887L15.1664 18.123L17.3742 16.302C19.0406 14.9309 20.9039 13.848 22.9078 13.0887L25.5727 12.0832L26.8313 5.24883C28.807 5.02383 30.825 5.02383 32.8078 5.24883L34.0664 12.0691L36.7453 13.0746C38.7633 13.834 40.6406 14.9168 42.3211 16.2949L44.5289 18.109L51.0539 15.7957C52.2492 17.4059 53.2477 19.1426 54.0492 20.9707L48.7969 25.4637L49.2539 28.2691C49.4297 29.3309 49.5211 30.4207 49.5211 31.5105C49.5211 32.6004 49.4297 33.6902 49.2539 34.7519L48.7898 37.5715L54.0422 42.0645C53.2459 43.8988 52.2409 45.6353 51.0469 47.2395L44.5219 44.9262L42.3141 46.7402C40.6336 48.1184 38.7633 49.2012 36.7383 49.9605L34.0594 50.966L32.8008 57.7863Z" fill="#565682"/>
</svg>
