<svg width="24" height="24" viewBox="0 0 24 24" fill="none" xmlns="http://www.w3.org/2000/svg">
<path d="M13.2322 4.69653C13.447 4.48174 13.7952 4.48174 14.01 4.69653L19.5961 10.2827C19.8109 10.4975 19.8109 10.8457 19.5961 11.0605C19.3814 11.2753 19.0331 11.2753 18.8183 11.0605L13.2322 5.47434C13.0174 5.25956 13.0174 4.91131 13.2322 4.69653Z" fill="#565682"/>
<rect x="10.0854" y="13.5" width="1.1" height="7" rx="0.55" transform="rotate(45 10.0854 13.5)" fill="#565682"/>
<mask id="path-3-inside-1" fill="white">
<path fill-rule="evenodd" clip-rule="evenodd" d="M19.278 9.96457L14.3283 5.01482L8.67144 10.6717L8.6714 10.6716L6.80866 10.6716C6.4523 10.6716 6.27383 11.1025 6.52582 11.3545L12.9383 17.767C13.1903 18.019 13.6211 17.8405 13.6212 17.4841V15.6214L13.6212 15.6214L19.278 9.96457Z"/>
</mask>
<path d="M14.3283 5.01482L15.1061 4.237C14.6765 3.80743 13.9801 3.80743 13.5505 4.237L14.3283 5.01482ZM19.278 9.96457L20.0559 10.7424C20.2622 10.5361 20.378 10.2563 20.378 9.96457C20.378 9.67283 20.2622 9.39304 20.0559 9.18675L19.278 9.96457ZM8.67144 10.6717L7.89363 11.4495C8.3232 11.8791 9.01968 11.8791 9.44926 11.4495L8.67144 10.6717ZM8.6714 10.6716L9.44922 9.89382C9.24293 9.68753 8.96314 9.57163 8.6714 9.57163L8.6714 10.6716ZM6.80866 10.6716L6.80866 9.57163H6.80866L6.80866 10.6716ZM13.6212 17.4841L14.7212 17.4841L14.7212 17.4841H13.6212ZM13.6212 15.6214L14.399 14.8436C14.0844 14.529 13.6112 14.4349 13.2002 14.6051C12.7892 14.7754 12.5212 15.1765 12.5212 15.6214L13.6212 15.6214ZM13.6212 15.6214L12.8434 16.3992C13.273 16.8288 13.9694 16.8288 14.399 16.3992L13.6212 15.6214ZM13.5505 5.79264L18.5002 10.7424L20.0559 9.18675L15.1061 4.237L13.5505 5.79264ZM9.44926 11.4495L15.1061 5.79264L13.5505 4.237L7.89363 9.89386L9.44926 11.4495ZM7.89359 11.4495L7.89363 11.4495L9.44926 9.89386L9.44922 9.89382L7.89359 11.4495ZM6.80866 11.7716L8.6714 11.7716L8.6714 9.57163L6.80866 9.57163L6.80866 11.7716ZM7.30364 10.5767C7.74461 11.0176 7.43229 11.7716 6.80866 11.7716L6.80866 9.57163C5.47231 9.57164 4.80305 11.1873 5.748 12.1323L7.30364 10.5767ZM13.7161 16.9891L7.30364 10.5767L5.748 12.1323L12.1605 18.5448L13.7161 16.9891ZM12.5212 17.4841C12.5212 16.8605 13.2752 16.5482 13.7161 16.9891L12.1605 18.5448C13.1054 19.4897 14.7211 18.8205 14.7212 17.4841L12.5212 17.4841ZM12.5212 15.6214L12.5212 17.4841H14.7212L14.7212 15.6214H12.5212ZM14.399 14.8436L14.399 14.8436L12.8433 16.3992L12.8434 16.3992L14.399 14.8436ZM18.5002 9.18675L12.8434 14.8436L14.399 16.3992L20.0559 10.7424L18.5002 9.18675Z" fill="#565682" mask="url(#path-3-inside-1)"/>
</svg>
