<svg width="48" height="40" viewBox="0 0 48 40" fill="none" xmlns="http://www.w3.org/2000/svg">
<path fill-rule="evenodd" clip-rule="evenodd" d="M2.64372 4.61538C2.64372 3.39131 3.12582 2.21737 3.98398 1.35181C4.84213 0.486262 6.00604 0 7.21965 0H15.6516C18.5741 0 21.0207 1.72308 22.7016 3.64308C23.9523 5.07077 25.4624 6.15385 27.0487 6.15385H40.7765C41.9901 6.15385 43.1541 6.64011 44.0122 7.50566C44.8704 8.37121 45.3525 9.54515 45.3525 10.7692V12.7385C47.0913 13.5538 48.2201 15.4338 47.9638 17.4954L46.0114 33.2615C45.7807 35.1232 44.8835 36.8357 43.4885 38.0767C42.0934 39.3177 40.2968 40.0017 38.4367 40H9.55643C7.69737 40.0002 5.90224 39.3155 4.50849 38.0747C3.11474 36.8338 2.21835 35.1222 1.98783 33.2615L0.0354306 17.4954C-0.0848464 16.5261 0.102878 15.5433 0.571585 14.6885C1.04029 13.8337 1.76581 13.1509 2.64372 12.7385V4.61538ZM5.69434 12.3077H42.3018V10.7692C42.3018 10.3612 42.1411 9.96989 41.8551 9.68137C41.569 9.39286 41.1811 9.23077 40.7765 9.23077H27.0487C24.1079 9.23077 21.8321 7.29538 20.4167 5.68C19.0378 4.10461 17.3477 3.07692 15.6516 3.07692H7.21965C6.81511 3.07692 6.42715 3.23901 6.14109 3.52753C5.85504 3.81605 5.69434 4.20736 5.69434 4.61538V12.3077ZM4.57476 15.3846C4.35852 15.3847 4.14477 15.4311 3.94768 15.5208C3.75058 15.6106 3.57466 15.7415 3.43157 15.9051C3.28849 16.0686 3.18151 16.2609 3.11773 16.4693C3.05395 16.6777 3.03484 16.8974 3.06165 17.1138L5.01405 32.88C5.15239 33.9966 5.6904 35.0237 6.5269 35.7683C7.36341 36.5128 8.44078 36.9235 9.55643 36.9231H38.4398C39.5554 36.9235 40.6328 36.5128 41.4693 35.7683C42.3058 35.0237 42.8438 33.9966 42.9821 32.88L44.9345 17.1138C44.9613 16.8974 44.9422 16.6777 44.8785 16.4693C44.8147 16.2609 44.7077 16.0686 44.5646 15.9051C44.4215 15.7415 44.2456 15.6106 44.0485 15.5208C43.8514 15.4311 43.6377 15.3847 43.4214 15.3846H4.57476Z" fill="#565682"/>
</svg>
