<svg width="24" height="24" viewBox="0 0 24 24" fill="none" xmlns="http://www.w3.org/2000/svg">
<mask id="path-1-inside-1" fill="white">
<path fill-rule="evenodd" clip-rule="evenodd" d="M5.70696 11.364C5.31643 11.7545 5.31643 12.3877 5.70696 12.7782L7.00019 14.0714V16C7.00019 16.5523 7.4479 17 8.00019 17H9.92877L11.3638 18.4351C11.7543 18.8256 12.3875 18.8256 12.778 18.4351L14.2131 17H16.0002C16.5525 17 17.0002 16.5523 17.0002 16V14.2129L18.4349 12.7782C18.8254 12.3877 18.8254 11.7545 18.4349 11.364L17.0002 9.9293V8.00002C17.0002 7.44773 16.5525 7.00002 16.0002 7.00002H14.0709L12.778 5.70714C12.3875 5.31661 11.7543 5.31661 11.3638 5.70714L10.0709 7.00002H8.00019C7.4479 7.00002 7.00019 7.44773 7.00019 8.00002V10.0708L5.70696 11.364Z"/>
</mask>
<path d="M5.70696 12.7782L4.99985 13.4853H4.99985L5.70696 12.7782ZM5.70696 11.364L6.41406 12.0711L6.41406 12.0711L5.70696 11.364ZM7.00019 14.0714H8.00019V13.6572L7.70729 13.3643L7.00019 14.0714ZM9.92877 17L10.6359 16.2929L10.343 16H9.92877V17ZM11.3638 18.4351L12.0709 17.728H12.0709L11.3638 18.4351ZM12.778 18.4351L13.4851 19.1422L12.778 18.4351ZM14.2131 17V16H13.7989L13.506 16.2929L14.2131 17ZM17.0002 14.2129L16.2931 13.5058L16.0002 13.7987V14.2129H17.0002ZM18.4349 12.7782L17.7278 12.0711V12.0711L18.4349 12.7782ZM18.4349 11.364L19.142 10.6569L19.142 10.6569L18.4349 11.364ZM17.0002 9.9293H16.0002V10.3435L16.2931 10.6364L17.0002 9.9293ZM14.0709 7.00002L13.3638 7.70713L13.6567 8.00002H14.0709V7.00002ZM12.778 5.70714L13.4851 5.00003V5.00003L12.778 5.70714ZM11.3638 5.70714L10.6567 5.00003V5.00003L11.3638 5.70714ZM10.0709 7.00002V8.00002H10.4851L10.778 7.70713L10.0709 7.00002ZM7.00019 10.0708L7.70729 10.7779L8.00019 10.485V10.0708H7.00019ZM6.41406 12.0711H6.41406L4.99985 10.6569C4.2188 11.4379 4.2188 12.7043 4.99985 13.4853L6.41406 12.0711ZM7.70729 13.3643L6.41406 12.0711L4.99985 13.4853L6.29308 14.7785L7.70729 13.3643ZM8.00019 16V14.0714H6.00019V16H8.00019ZM8.00019 16H8.00019H6.00019C6.00019 17.1046 6.89562 18 8.00019 18V16ZM9.92877 16H8.00019V18H9.92877V16ZM12.0709 17.728L10.6359 16.2929L9.22166 17.7071L10.6567 19.1422L12.0709 17.728ZM12.0709 17.728L10.6567 19.1422C11.4378 19.9232 12.7041 19.9232 13.4851 19.1422L12.0709 17.728ZM13.506 16.2929L12.0709 17.728L13.4851 19.1422L14.9202 17.7071L13.506 16.2929ZM16.0002 16H14.2131V18H16.0002V16ZM16.0002 16V18C17.1048 18 18.0002 17.1046 18.0002 16H16.0002ZM16.0002 14.2129V16H18.0002V14.2129H16.0002ZM17.7278 12.0711L16.2931 13.5058L17.7073 14.92L19.142 13.4853L17.7278 12.0711ZM17.7278 12.0711L17.7278 12.0711L19.142 13.4853C19.923 12.7043 19.923 11.4379 19.142 10.6569L17.7278 12.0711ZM16.2931 10.6364L17.7278 12.0711L19.142 10.6569L17.7073 9.22219L16.2931 10.6364ZM16.0002 8.00002V9.9293H18.0002V8.00002H16.0002ZM16.0002 8.00002L16.0002 8.00002H18.0002C18.0002 6.89545 17.1048 6.00002 16.0002 6.00002V8.00002ZM14.0709 8.00002H16.0002V6.00002H14.0709V8.00002ZM12.0709 6.41425L13.3638 7.70713L14.778 6.29291L13.4851 5.00003L12.0709 6.41425ZM12.0709 6.41425L12.0709 6.41425L13.4851 5.00003C12.7041 4.21898 11.4378 4.21898 10.6567 5.00003L12.0709 6.41425ZM10.778 7.70713L12.0709 6.41425L10.6567 5.00003L9.36382 6.29291L10.778 7.70713ZM8.00019 8.00002H10.0709V6.00002H8.00019V8.00002ZM8.00019 8.00002V8.00002V6.00002C6.89562 6.00002 6.00019 6.89545 6.00019 8.00002H8.00019ZM8.00019 10.0708V8.00002H6.00019V10.0708H8.00019ZM6.41406 12.0711L7.70729 10.7779L6.29308 9.36366L4.99985 10.6569L6.41406 12.0711Z" fill="#565682" mask="url(#path-1-inside-1)"/>
<circle cx="12" cy="12" r="1.5" stroke="#565682"/>
</svg>
