<svg width="24px" height="24px" viewBox="0 0 24 24" version="1.1" xmlns="http://www.w3.org/2000/svg" xmlns:xlink="http://www.w3.org/1999/xlink">
          <g stroke="none" stroke-width="1" fill="none" fill-rule="evenodd">
            <g transform="translate(-105.000000, -430.000000)"  class="strokes">
              <g transform="translate(101.000000, 426.000000)">
                <g id="-mockplus-" transform="translate(4.000000, 4.000000)">
                  <g id="LI_Single_Line_CNA_NEG_RGB" transform="translate(0.000000, 7.000000)">
                    <path d="M9.58942012,9.81647727 C8.81204701,9.81647727 8.05047139,9.80142045 7.29662405,9.62164773 C6.53368462,9.43971591 5.88104352,9.13045455 5.26289552,8.67460227 C3.9922769,7.73767045 3.27292264,6.49210227 2.54174868,5.16090909 C1.694537,3.61840909 0.847268501,2.07590909 0,0.533352273 C2.27114555,0.533352273 4.5422911,0.533352273 6.81349348,0.533352273 C6.89611778,0.683693182 8.50678032,3.61357955 8.58457445,3.75505682 C8.84290327,4.22545455 9.09810668,4.62829545 9.5292419,4.97738636 C10.0773809,5.42119318 10.9581196,5.50369318 11.7942503,5.50369318 C12.8930285,5.50369318 12.167594,5.50363636 13.2663722,5.50363636 C14.0560196,6.94125 14.8456671,8.37886364 15.6353145,9.81647727 C13.2702363,9.81647727 11.9544983,9.81647727 9.58942012,9.81647727" id="Fill-1"></path>
                    <polyline id="Fill-3" points="23.8727987 9.81647727 21.4974919 5.49215909 14.1688183 5.49215909 16.544125 9.81647727 23.8727987 9.81647727"></polyline>
                    <polyline id="Fill-4" points="21.1185225 4.80278409 18.7531603 0.496875 11.4244866 0.496875 13.7898489 4.80278409 21.1185225 4.80278409"></polyline>
                  </g>
                </g>
              </g>
            </g>
          </g>
        </svg>