<svg width="24" height="24" viewBox="0 0 24 24" fill="none" xmlns="http://www.w3.org/2000/svg">
<circle cx="12" cy="12" r="7.5" stroke="#565682"/>
<path fill-rule="evenodd" clip-rule="evenodd" d="M14.0203 14.8285C14.2435 15.0517 14.6053 15.0517 14.8285 14.8285C15.0516 14.6053 15.0516 14.2435 14.8285 14.0204L12.8082 12.0001L14.8285 9.97969C15.0517 9.75654 15.0517 9.39473 14.8285 9.17157C14.6054 8.94842 14.2436 8.94842 14.0204 9.17157L12 11.192L9.97974 9.17165C9.75658 8.94849 9.39477 8.94849 9.17161 9.17165C8.94846 9.3948 8.94846 9.75661 9.17161 9.97977L11.1919 12.0001L9.17169 14.0203C8.94853 14.2435 8.94853 14.6053 9.17169 14.8284C9.39485 15.0516 9.75665 15.0516 9.97981 14.8284L12 12.8082L14.0203 14.8285Z" fill="#565682"/>
</svg>
