<svg width="14" height="14" viewBox="0 0 14 14" fill="none" xmlns="http://www.w3.org/2000/svg">
<path d="M8.51868 7.97495e-07C8.58438 -0.00011655 8.64947 0.0127175 8.71021 0.0377692C8.77095 0.0628209 8.82616 0.0995989 8.87268 0.146001L13.8227 5.096C13.9164 5.18976 13.9691 5.31692 13.9691 5.4495C13.9691 5.58208 13.9164 5.70924 13.8227 5.803C13.3427 6.283 12.7507 6.391 12.3197 6.391C12.1427 6.391 11.9847 6.373 11.8597 6.352L8.72568 9.486C8.80818 9.81841 8.86171 10.1573 8.88568 10.499C8.93168 11.201 8.85368 12.186 8.16568 12.874C8.07191 12.9677 7.94476 13.0204 7.81218 13.0204C7.6796 13.0204 7.55244 12.9677 7.45868 12.874L4.62968 10.046L1.44768 13.228C1.25268 13.423 0.228678 14.13 0.0336783 13.935C-0.161322 13.74 0.545678 12.715 0.740678 12.521L3.92268 9.339L1.09468 6.51C1.00094 6.41624 0.948285 6.28908 0.948285 6.1565C0.948285 6.02392 1.00094 5.89676 1.09468 5.803C1.78268 5.115 2.76768 5.036 3.46968 5.083C3.81134 5.10693 4.15028 5.16046 4.48268 5.243L7.61668 2.11C7.59052 1.95772 7.57714 1.80351 7.57668 1.649C7.57668 1.219 7.68468 0.627001 8.16568 0.146001C8.25938 0.0525318 8.38633 2.89165e-05 8.51868 7.97495e-07ZM8.64068 2.112V2.11V2.112ZM8.64068 2.11V2.112C8.66956 2.19997 8.67344 2.29423 8.6519 2.38428C8.63036 2.47433 8.58424 2.55662 8.51868 2.622L4.98368 6.156C4.918 6.2214 4.83543 6.26726 4.74519 6.28845C4.65496 6.30964 4.56061 6.30533 4.47268 6.276H4.47068L4.45668 6.272C4.36154 6.2435 4.26549 6.21815 4.16868 6.196C3.91712 6.13732 3.66133 6.09853 3.40368 6.08C2.98168 6.052 2.56768 6.088 2.22868 6.23L7.73868 11.739C7.87968 11.399 7.91568 10.986 7.88768 10.564C7.8622 10.2067 7.79782 9.85331 7.69568 9.51L7.69168 9.497V9.496C7.66215 9.40794 7.65774 9.31339 7.67893 9.22295C7.70013 9.13252 7.74609 9.04978 7.81168 8.984L11.3477 5.449C11.4158 5.38049 11.5022 5.33318 11.5967 5.31277C11.6911 5.29236 11.7894 5.29974 11.8797 5.334L11.9757 5.356C12.0627 5.373 12.1837 5.39 12.3197 5.39C12.4337 5.39 12.5497 5.379 12.6627 5.35L8.61768 1.306C8.58868 1.419 8.57768 1.536 8.57768 1.649C8.57817 1.80438 8.59901 1.95903 8.63968 2.109L8.64068 2.11Z" fill="black"/>
</svg>
