<svg width="32" height="32" viewBox="0 0 32 32" fill="none" xmlns="http://www.w3.org/2000/svg">
<path fill-rule="evenodd" clip-rule="evenodd" d="M14.6805 3.09063C11.6067 3.09063 8.65875 4.3117 6.48523 6.48523C4.3117 8.65875 3.09063 11.6067 3.09063 14.6805C3.09063 17.7543 4.3117 20.7023 6.48523 22.8758C8.65875 25.0493 11.6067 26.2704 14.6805 26.2704C17.7543 26.2704 20.7023 25.0493 22.8758 22.8758C25.0493 20.7023 26.2704 17.7543 26.2704 14.6805C26.2704 11.6067 25.0493 8.65875 22.8758 6.48523C20.7023 4.3117 17.7543 3.09063 14.6805 3.09063ZM4.29982 4.29982C7.05295 1.54669 10.787 0 14.6805 0C18.574 0 22.3081 1.54669 25.0612 4.29982C27.8143 7.05295 29.361 10.787 29.361 14.6805C29.361 18.0529 28.2006 21.3057 26.101 23.905L32 29.8146L29.8126 31.9981L23.9167 26.0916C21.3154 28.1972 18.0579 29.361 14.6805 29.361C10.787 29.361 7.05295 27.8143 4.29982 25.0612C1.54669 22.3081 0 18.574 0 14.6805C0 10.787 1.54669 7.05295 4.29982 4.29982Z" fill="#A8A8BE"/>
</svg>
