<svg width="12" height="12" viewBox="0 0 12 12" fill="none" xmlns="http://www.w3.org/2000/svg">
<path d="M3.5 10C3.5 10.3978 3.34196 10.7794 3.06066 11.0607C2.77936 11.342 2.39782 11.5 2 11.5C1.60218 11.5 1.22064 11.342 0.93934 11.0607C0.658035 10.7794 0.5 10.3978 0.5 10C0.5 9.60218 0.658035 9.22064 0.93934 8.93934C1.22064 8.65804 1.60218 8.5 2 8.5C2.39782 8.5 2.77936 8.65804 3.06066 8.93934C3.34196 9.22064 3.5 9.60218 3.5 10Z" fill="black"/>
<path fill-rule="evenodd" clip-rule="evenodd" d="M0.5 1.5C0.5 1.23478 0.605357 0.98043 0.792893 0.792893C0.98043 0.605357 1.23478 0.5 1.5 0.5C7.023 0.5 11.5 4.977 11.5 10.5C11.5 10.7652 11.3946 11.0196 11.2071 11.2071C11.0196 11.3946 10.7652 11.5 10.5 11.5C10.2348 11.5 9.98043 11.3946 9.79289 11.2071C9.60536 11.0196 9.5 10.7652 9.5 10.5C9.5 8.37827 8.65715 6.34344 7.15685 4.84315C5.65656 3.34285 3.62173 2.5 1.5 2.5C1.23478 2.5 0.98043 2.39464 0.792893 2.20711C0.605357 2.01957 0.5 1.76522 0.5 1.5ZM0.5 5.5C0.5 5.23478 0.605357 4.98043 0.792893 4.79289C0.98043 4.60536 1.23478 4.5 1.5 4.5C3.0913 4.5 4.61742 5.13214 5.74264 6.25736C6.86786 7.38258 7.5 8.9087 7.5 10.5C7.5 10.7652 7.39464 11.0196 7.20711 11.2071C7.01957 11.3946 6.76522 11.5 6.5 11.5C6.23478 11.5 5.98043 11.3946 5.79289 11.2071C5.60536 11.0196 5.5 10.7652 5.5 10.5C5.5 9.43913 5.07857 8.42172 4.32843 7.67157C3.57828 6.92143 2.56087 6.5 1.5 6.5C1.23478 6.5 0.98043 6.39464 0.792893 6.20711C0.605357 6.01957 0.5 5.76522 0.5 5.5Z" fill="black"/>
</svg>
