<svg width="24" height="24" viewBox="0 0 24 24" fill="none" xmlns="http://www.w3.org/2000/svg">
<path fill-rule="evenodd" clip-rule="evenodd" d="M17 8V5C17 4.44772 16.5523 4 16 4L6 4C5.44772 4 5 4.44772 5 5L5 17C5 17.5523 5.44771 18 6 18H9V17H6.5C6.22386 17 6 16.7761 6 16.5L6 5.5C6 5.22386 6.22386 5 6.5 5L15.5 5C15.7761 5 16 5.22386 16 5.5V8H17Z" fill="#565682"/>
<path fill-rule="evenodd" clip-rule="evenodd" d="M18 20C18.5523 20 19 19.5523 19 19V10C19 9.44772 18.5523 9 18 9L11 9C10.4477 9 10 9.44771 10 10L10 19C10 19.5523 10.4477 20 11 20H18ZM17.5 19C17.7761 19 18 18.7761 18 18.5V10.5C18 10.2239 17.7761 10 17.5 10L11.5 10C11.2239 10 11 10.2239 11 10.5L11 18.5C11 18.7761 11.2239 19 11.5 19H17.5Z" fill="#565682"/>
</svg>
