<svg width="24" height="24" viewBox="0 0 24 24" fill="none" xmlns="http://www.w3.org/2000/svg">
<path fill-rule="evenodd" clip-rule="evenodd" d="M6 4C5.44772 4 5 4.44772 5 5V19C5 19.5523 5.44772 20 6 20H19C19.5523 20 20 19.5523 20 19V5C20 4.44772 19.5523 4 19 4H6ZM6.5 5C6.22386 5 6 5.22386 6 5.5V18.5C6 18.7761 6.22386 19 6.5 19H18.5C18.7761 19 19 18.7761 19 18.5V5.5C19 5.22386 18.7761 5 18.5 5H6.5Z" fill="#565682"/>
<path fill-rule="evenodd" clip-rule="evenodd" d="M12 14.8C12 14.9105 12.0895 15 12.2 15H12.8C12.9105 15 13 14.9105 13 14.8V12H15.8C15.9105 12 16 11.9105 16 11.8V11.2C16 11.0895 15.9105 11 15.8 11H13V8.2C13 8.08954 12.9105 8 12.8 8H12.2C12.0895 8 12 8.08954 12 8.2V11H9.2C9.08954 11 9 11.0895 9 11.2V11.8C9 11.9105 9.08954 12 9.2 12H12V14.8Z" fill="#565682"/>
</svg>
