<svg width="24" height="24" viewBox="0 0 24 24" fill="none" xmlns="http://www.w3.org/2000/svg">
<path fill-rule="evenodd" clip-rule="evenodd" d="M19 5L19 13H18V5.5C18 5.22386 17.7761 5 17.5 5L6.5 5C6.22386 5 6 5.22386 6 5.5L6 18.5C6 18.7761 6.22386 19 6.5 19H11V20H6C5.44772 20 5 19.5523 5 19L5 5C5 4.44771 5.44772 4 6 4H18C18.5523 4 19 4.44771 19 5Z" fill="#565682"/>
<rect x="7" y="8" width="7" height="1" rx="0.2" fill="#565682"/>
<rect x="7" y="12" width="5" height="1" rx="0.2" fill="#565682"/>
<path fill-rule="evenodd" clip-rule="evenodd" d="M17.741 18.0339L16.2071 16.5L17.9749 14.7322C18.1701 14.537 18.1701 14.2204 17.9749 14.0251C17.7796 13.8298 17.463 13.8298 17.2678 14.0251L15.5 15.7929L13.7322 14.0251C13.537 13.8298 13.2204 13.8298 13.0251 14.0251C12.8299 14.2204 12.8299 14.537 13.0251 14.7322L14.7929 16.5L13.259 18.0339C13.1764 18.0118 13.0896 18 13 18C12.4477 18 12 18.4477 12 19C12 19.5523 12.4477 20 13 20C13.5523 20 14 19.5523 14 19C14 18.9104 13.9882 18.8236 13.9661 18.741L15.5 17.2071L17.0339 18.741C17.0118 18.8236 17 18.9104 17 19C17 19.5523 17.4477 20 18 20C18.5523 20 19 19.5523 19 19C19 18.4477 18.5523 18 18 18C17.9104 18 17.8236 18.0118 17.741 18.0339Z" fill="#565682"/>
</svg>
