<svg width="24" height="24" viewBox="0 0 24 24" fill="none" xmlns="http://www.w3.org/2000/svg">
<path fill-rule="evenodd" clip-rule="evenodd" d="M5 5C5 4.44772 5.44772 4 6 4H18C18.5523 4 19 4.44772 19 5V19C19 19.5523 18.5523 20 18 20H6C5.44772 20 5 19.5523 5 19V15H6V18.5C6 18.7761 6.22386 19 6.5 19H17.5C17.7761 19 18 18.7761 18 18.5V5.5C18 5.22386 17.7761 5 17.5 5H6.5C6.22386 5 6 5.22386 6 5.5V9H5V5Z" fill="#565682"/>
<path d="M14.3535 12.3536C14.5488 12.1583 14.5488 11.8417 14.3535 11.6464L11.1715 8.46447C10.9763 8.2692 10.6597 8.2692 10.4644 8.46447C10.2692 8.65973 10.2692 8.97631 10.4644 9.17157L13.2929 12L10.4644 14.8284C10.2692 15.0237 10.2692 15.3403 10.4644 15.5355C10.6597 15.7308 10.9763 15.7308 11.1715 15.5355L14.3535 12.3536ZM6 12.5H14V11.5H6V12.5Z" fill="#565682"/>
<path d="M6.5 12C6.5 12.2761 6.27614 12.5 6 12.5C5.72386 12.5 5.5 12.2761 5.5 12C5.5 11.7239 5.72386 11.5 6 11.5C6.27614 11.5 6.5 11.7239 6.5 12Z" fill="#565682"/>
</svg>
