<svg width="24" height="24" viewBox="0 0 24 24" fill="none" xmlns="http://www.w3.org/2000/svg">
<path d="M9.8696 8.5712H13.7144V6.8568H6.8568V13.7144H8.5712V9.6976L13.792 14.9176C13.7416 15.0792 13.7144 15.2504 13.7144 15.4288V22.2856H1.7144V1.7144H22.2856V13.7144H15.4288C15.3 13.7144 15.1744 13.7288 15.0536 13.7552L9.8696 8.5712ZM22.2856 0H1.7144C0.767199 0 0 0.768 0 1.7144V22.2856C0 23.2328 0.768 24 1.7144 24H22.2856C23.2324 24 24 23.2324 24 22.2856V1.7144C24 0.7672 23.232 0 22.2856 0ZM22.2856 15.4288V22.2856H15.4288V15.4288H22.2856Z" fill="#A8A8BE"/>
</svg>
