<svg width="24" height="24" viewBox="0 0 24 24" fill="none" xmlns="http://www.w3.org/2000/svg">
<mask id="path-1-inside-1" fill="white">
<path fill-rule="evenodd" clip-rule="evenodd" d="M5.70696 11.3641C5.31643 11.7546 5.31643 12.3877 5.70696 12.7783L7.00019 14.0715V16.0001C7.00019 16.5524 7.4479 17.0001 8.00019 17.0001H9.92877L11.3638 18.4351C11.7543 18.8256 12.3875 18.8256 12.778 18.4351L14.2131 17.0001H16.0002C16.5525 17.0001 17.0002 16.5524 17.0002 16.0001V14.213L18.4349 12.7783C18.8254 12.3877 18.8254 11.7546 18.4349 11.3641L17.0002 9.92936V8.00008C17.0002 7.4478 16.5525 7.00008 16.0002 7.00008H14.0709L12.778 5.7072C12.3875 5.31668 11.7543 5.31668 11.3638 5.7072L10.0709 7.00008H8.00019C7.4479 7.00008 7.00019 7.4478 7.00019 8.00008V10.0708L5.70696 11.3641Z"/>
</mask>
<path d="M5.70696 12.7783L4.99985 13.4854H4.99985L5.70696 12.7783ZM5.70696 11.3641L6.41406 12.0712L6.41406 12.0712L5.70696 11.3641ZM7.00019 14.0715H8.00019V13.6573L7.70729 13.3644L7.00019 14.0715ZM9.92877 17.0001L10.6359 16.293L10.343 16.0001H9.92877V17.0001ZM11.3638 18.4351L12.0709 17.728H12.0709L11.3638 18.4351ZM12.778 18.4351L13.4851 19.1422L12.778 18.4351ZM14.2131 17.0001V16.0001H13.7989L13.506 16.293L14.2131 17.0001ZM17.0002 14.213L16.2931 13.5059L16.0002 13.7987V14.213H17.0002ZM18.4349 12.7783L17.7278 12.0712V12.0712L18.4349 12.7783ZM18.4349 11.3641L19.142 10.6569L19.142 10.6569L18.4349 11.3641ZM17.0002 9.92936H16.0002V10.3436L16.2931 10.6365L17.0002 9.92936ZM14.0709 7.00008L13.3638 7.70719L13.6567 8.00008H14.0709V7.00008ZM12.778 5.7072L13.4851 5.00009V5.00009L12.778 5.7072ZM11.3638 5.7072L10.6567 5.00009V5.00009L11.3638 5.7072ZM10.0709 7.00008V8.00008H10.4851L10.778 7.70719L10.0709 7.00008ZM7.00019 10.0708L7.70729 10.7779L8.00019 10.485V10.0708H7.00019ZM6.41406 12.0712H6.41406L4.99985 10.6569C4.2188 11.438 4.2188 12.7043 4.99985 13.4854L6.41406 12.0712ZM7.70729 13.3644L6.41406 12.0712L4.99985 13.4854L6.29308 14.7786L7.70729 13.3644ZM8.00019 16.0001V14.0715H6.00019V16.0001H8.00019ZM8.00019 16.0001H8.00019H6.00019C6.00019 17.1047 6.89562 18.0001 8.00019 18.0001V16.0001ZM9.92877 16.0001H8.00019V18.0001H9.92877V16.0001ZM12.0709 17.728L10.6359 16.293L9.22166 17.7072L10.6567 19.1422L12.0709 17.728ZM12.0709 17.728L10.6567 19.1422C11.4378 19.9233 12.7041 19.9233 13.4851 19.1422L12.0709 17.728ZM13.506 16.293L12.0709 17.728L13.4851 19.1422L14.9202 17.7072L13.506 16.293ZM16.0002 16.0001H14.2131V18.0001H16.0002V16.0001ZM16.0002 16.0001V18.0001C17.1048 18.0001 18.0002 17.1046 18.0002 16.0001H16.0002ZM16.0002 14.213V16.0001H18.0002V14.213H16.0002ZM17.7278 12.0712L16.2931 13.5059L17.7073 14.9201L19.142 13.4854L17.7278 12.0712ZM17.7278 12.0712L17.7278 12.0712L19.142 13.4854C19.923 12.7043 19.923 11.438 19.142 10.6569L17.7278 12.0712ZM16.2931 10.6365L17.7278 12.0712L19.142 10.6569L17.7073 9.22226L16.2931 10.6365ZM16.0002 8.00008V9.92936H18.0002V8.00008H16.0002ZM16.0002 8.00008L16.0002 8.00008H18.0002C18.0002 6.89551 17.1048 6.00008 16.0002 6.00008V8.00008ZM14.0709 8.00008H16.0002V6.00008H14.0709V8.00008ZM12.0709 6.41431L13.3638 7.70719L14.778 6.29297L13.4851 5.00009L12.0709 6.41431ZM12.0709 6.41431L12.0709 6.41431L13.4851 5.00009C12.7041 4.21904 11.4378 4.21904 10.6567 5.00009L12.0709 6.41431ZM10.778 7.70719L12.0709 6.41431L10.6567 5.00009L9.36382 6.29297L10.778 7.70719ZM8.00019 8.00008H10.0709V6.00008H8.00019V8.00008ZM8.00019 8.00008V8.00008V6.00008C6.89562 6.00008 6.00019 6.89551 6.00019 8.00008H8.00019ZM8.00019 10.0708V8.00008H6.00019V10.0708H8.00019ZM6.41406 12.0712L7.70729 10.7779L6.29308 9.36372L4.99985 10.6569L6.41406 12.0712Z" fill="#565682" mask="url(#path-1-inside-1)"/>
<circle cx="12" cy="12" r="1.5" stroke="#565682"/>
</svg>
